<?xml version="1.0" encoding="UTF-8"?>
<svg width="4846px" height="2800px" viewBox="0 0 4846 2800" version="1.1" xmlns="http://www.w3.org/2000/svg" xmlns:xlink="http://www.w3.org/1999/xlink">
    <title>NO INTERNET B</title>
    <defs>
        <path d="M24,0 L191.031976,0 C199.90694,-3.91559067e-14 208.214896,4.36244374 213.253565,11.6683861 C218.292235,18.9743286 226.60019,23.3367723 235.475154,23.3367723 L267.481368,23.3367723 C276.356332,23.3367723 284.664287,18.9743286 289.702957,11.6683861 C294.741626,4.36244374 303.049581,8.73573179e-15 311.924545,0 L478.151791,0 C491.406625,-2.4348735e-15 502.151791,10.745166 502.151791,24 L502.151791,924.760501 C502.151791,938.015335 491.406625,948.760501 478.151791,948.760501 L24,948.760501 C10.745166,948.760501 1.623249e-15,938.015335 0,924.760501 L0,24 C-1.623249e-15,10.745166 10.745166,5.98758718e-15 24,0 Z" id="path-1"></path>
        <path d="M1344,0 C603.456,0 0,603.456 0,1344 C0,2084.544 603.456,2688 1344,2688 C2084.544,2688 2688,2084.544 2688,1344 C2688,603.456 2084.544,0 1344,0 Z" id="path-3"></path>
        <path d="M302.515355,299.902914 C324.571047,277.953025 320.435605,238.16885 292.86599,218.962697 C284.44881,213.098936 272.188779,212.103357 262.539413,221.706433 C250.980949,233.209451 129.395881,355.295266 119.496645,365.290412 C109.783135,375.098034 103.788659,388.563551 103.788659,403.422437 C103.788659,419.004268 110.380637,433.053847 120.940601,442.959767 C127.782002,449.377438 516.272686,928.413573 525.466236,939.766661 C548.198556,967.838738 601.099863,1059.7124 647.48626,1163.1522 C705.938681,1293.49874 834.210608,1620.89638 1032.30204,2145.34512 L1682.87569,1905.25072 C1345.24002,1433.49872 1142.01503,1144.23654 1073.20075,1037.46416 C1031.21345,972.316585 998.876242,910.881085 984.499714,850.016864 C967.622707,778.566657 860.624116,324.730724 836.691526,214.115421 C833.290026,198.39385 831.721382,187.197894 810.985381,171.475563 C790.24938,155.753233 706.552417,96.243267 678.115287,80.3512103 C668.304726,74.8685898 653.319882,76.2614321 640.345091,86.7682105 C609.529564,111.722132 612.085814,157.989525 647.775813,185.48197 C661.472785,196.032916 696.98941,223.818185 723.731146,244.343745 C737.831583,255.166503 748.491524,262.5266 747.2676,283.590382 C739.277736,421.096213 734.478516,466.75774 728.500811,515.815117 C725.814388,537.861857 717.45025,549.202917 698.552704,549.018319 C566.485817,547.728243 289.340046,542.130687 271.219183,541.875894 C254.921142,541.64673 242.079191,530.121084 241.303496,509.26594 C240.63449,491.279214 241.832302,433.646206 242.978911,393.100735 C241.648543,392.000425 240.526937,390.79346 239.59379,389.509747 C232.583615,379.865989 236.20926,365.890934 241.862202,360.26511 C268.053336,334.199616 293.64073,308.734967 302.515355,299.902914 Z" id="path-5"></path>
    </defs>
    <g id="NO-INTERNET-B" stroke="none" stroke-width="1" fill="none" fill-rule="evenodd">
        <circle id="Oval" fill="#BED3F0" fill-rule="nonzero" cx="2423" cy="1400" r="1288"></circle>
        <g id="Group-2" transform="translate(1079.000000, 0.000000)">
            <g id="Group-2-Copy" transform="translate(389.000000, 685.500000) rotate(-360.000000) translate(-389.000000, -685.500000) translate(214.000000, 511.000000)" fill="#85300F">
                <path d="M43.2747258,234.191204 C63.6511899,234.193956 169.781078,227.943129 361.664392,215.438723 L257.231458,115.182001 C124.663048,120.733127 53.3391528,123.508009 43.2597739,123.506648 C12.6950779,123.502519 -12.0791567,148.276753 -12.0750278,178.841449 C-12.070899,209.406145 12.7100298,234.187074 43.2747258,234.191204 Z" id="Oval-Copy-6" transform="translate(174.794682, 174.686602) rotate(-315.000000) translate(-174.794682, -174.686602) "></path>
            </g>
            <path d="M1969.33577,808 L2107,669.8548 C1850.2562,412.214001 1496.45912,314.130908 1164,372.151893 L1341.58686,550.359201 C1568.73285,548.977749 1796.56715,634.627773 1969.33577,808 Z M1830,946.248344 C1755.67742,871.506623 1667.5914,818.218543 1574,785 L1781.82796,994 L1830,946.248344 Z M1142,1222.93286 L1348.5,1430 L1555,1222.93286 C1441.425,1108.35571 1256.26333,1108.35571 1142,1222.93286 Z M757.765222,161 L660.78225,258.426551 L870.568111,469.171926 C770.146027,519.612622 675.914345,585.945593 592,669.552775 L729.564499,807.746464 C814.166667,722.757345 911.837461,658.49728 1016.38648,615.657236 L1170.45872,770.434168 C1059.03148,800.145811 954.482456,858.878128 867.128999,945.940152 L1004.6935,1084.13384 C1097.54954,990.853101 1218.6063,943.176279 1341.0387,941.794342 L1828.01703,1431 L1925,1333.57345 L757.765222,161 Z" id="Shape" fill="#FFFFFF" fill-rule="nonzero" transform="translate(1349.500000, 796.000000) rotate(-360.000000) translate(-1349.500000, -796.000000) "></path>
            <g id="Group-3" transform="translate(711.171738, 831.199566) rotate(-365.000000) translate(-711.171738, -831.199566) translate(446.671738, 343.199566)">
                <rect id="Rectangle" fill="#021122" x="0.739270965" y="0.68905969" width="528" height="974.608696" rx="32"></rect>
                <g id="Rectangle" transform="translate(13.261010, 13.210799)">
                    <mask id="mask-2" fill="white">
                        <use xlink:href="#path-1"></use>
                    </mask>
                    <use id="Mask" fill="#D3E3F6" xlink:href="#path-1"></use>
                </g>
                <g id="Group" transform="translate(211.372833, 62.508104)">
                    <path d="M13.9658826,33.9537308 C17.1887785,33.9537308 19.8012776,33.0518099 21.8033796,31.2479681 C23.8054816,29.4441262 24.8065327,27.1374435 24.8065327,24.32792 C24.8065327,22.2527037 24.2042743,20.5047331 22.9997577,19.0840081 C21.795241,17.6632831 20.3465655,16.7613622 18.6537313,16.3782453 C20.118684,15.8993493 21.3313393,14.9894468 22.2916972,13.6485378 C23.2520551,12.3076288 23.732234,10.7911246 23.732234,9.09902519 C23.732234,6.41720724 22.7718761,4.23024855 20.8511603,2.53814913 C18.9304446,0.84604971 16.2935297,0 12.9404157,0 L8,0 C3.581722,8.11624501e-16 -5.41083001e-16,3.581722 0,8 L0,33.9537308 L0,33.9537308 L13.9658826,33.9537308 Z M7.48876458,13.6182985 L7.48876458,6.34907162 L11.575853,6.34907162 C13.0355275,6.34907162 14.1546112,6.67373208 14.9331043,7.323053 C15.7115973,7.97237393 16.1008438,8.85133274 16.1008438,9.95992944 C16.1008438,11.1002003 15.703488,11.9949962 14.9087764,12.6443172 C14.1140647,13.2936381 13.0355275,13.6182985 11.6731647,13.6182985 L7.48876458,13.6182985 Z M12.4277379,27.7886903 L7.58237414,27.7886903 L7.58237414,19.8753546 L12.4277379,19.8753546 C13.9286586,19.8753546 15.1032923,20.24083 15.9516388,20.9717807 C16.7999853,21.7027313 17.2241585,22.6561453 17.2241585,23.8320225 C17.2241585,25.0396801 16.7999853,26.0010391 15.9516388,26.7160996 C15.1032923,27.43116 13.9286586,27.7886903 12.4277379,27.7886903 L12.4277379,27.7886903 Z M39.5493787,34.6898551 C42.4876264,34.6898551 44.9361661,33.9802122 46.8949979,32.5609265 C48.8538297,31.1416408 50.1433939,29.3316528 50.7636907,27.1309626 L45.1992304,25.5900224 C44.8400873,25.490547 44.4608941,25.6600301 44.2954503,25.9939575 C44.2954503,25.9939575 44.2954503,25.9939575 44.2954503,25.9939575 C43.4616448,27.6768886 41.9122681,28.5183542 39.6473203,28.5183542 C38.1781965,28.5183542 36.9049558,28.0798109 35.8275983,27.2027242 C34.7502408,26.3256375 34.1789149,25.2332659 34.1136205,23.9256094 L51.0575154,23.9256094 C51.155457,23.6385629 51.2044278,22.8890524 51.2044278,21.6770781 C51.2044278,17.8497907 50.1189085,14.8597225 47.94787,12.7068734 C45.7768314,10.5540242 42.7977748,9.47759966 39.0107,9.47759966 C35.7133331,9.47759966 32.8648653,10.6417329 30.4652963,12.9699994 C28.0657274,15.2982658 26.8659429,18.3122546 26.8659429,22.0119657 C26.8659429,25.8711471 28.0983746,28.948924 30.5632379,31.2452965 C33.0281012,33.5416689 36.0234815,34.6898551 39.5493787,34.6898551 Z M43.9028823,19.2312459 L34.1674884,19.2312459 C34.2653315,18.2030089 34.7382401,17.2711691 35.5862141,16.4357265 C36.4341882,15.6002839 37.5756916,15.1825626 39.0107246,15.1825626 C40.6088295,15.1825626 41.8074081,15.5842177 42.6064605,16.3875278 C43.405513,17.190838 43.8376536,18.1387441 43.9028823,19.2312459 L43.9028823,19.2312459 Z M84.0145776,34.6898551 C87.6874526,34.6898551 90.7508904,33.5018013 93.2048909,31.1256937 C95.6588915,28.7495862 96.8858917,25.7276239 96.8858917,22.0598068 C96.8858917,18.3919898 95.6588915,15.378001 93.2048909,13.0178405 C90.7508904,10.6576799 87.6874526,9.47759966 84.0145776,9.47759966 C80.374206,9.47759966 77.318894,10.6656534 74.8486418,13.041761 C72.3783896,15.4178686 71.1432635,18.4238838 71.1432635,22.0598068 C71.1432635,25.6957298 72.3783896,28.7097186 74.8486418,31.1017732 C77.318894,33.4938278 80.374206,34.6898551 84.0145776,34.6898551 Z M84.0145776,27.8807058 C82.5151531,27.8807058 81.2276038,27.3641274 80.1519297,26.3309705 C79.0762556,25.2978137 78.5384185,23.8434468 78.5384185,21.9678698 C78.5384185,20.0922927 79.0762556,18.6458732 80.1519297,17.628611 C81.2276038,16.6113489 82.5151531,16.1027179 84.0145776,16.1027179 C85.5465983,16.1027179 86.8422967,16.6034016 87.9016727,17.604769 C88.9610487,18.6061364 89.4907367,20.0605033 89.4907367,21.9678698 C89.4907367,23.8752362 88.9610487,25.3375505 87.9016727,26.3548126 C86.8422967,27.3720747 85.5465983,27.8807058 84.0145776,27.8807058 Z" id="Bero" fill="#001D3F" fill-rule="nonzero"></path>
                    <path d="M54.4482697,16.6492754 C54.4482697,13.114653 57.3136473,10.2492754 60.8482697,10.2492754 L60.8482697,10.2492754 L61.4733041,10.2492754 L61.4733041,13.4377978 C61.7729349,13.7478994 62.5863774,14.4877972 63.4714388,15.2978896 L63.7860672,15.5861337 C65.314184,16.9877406 66.8993261,18.4705043 66.3463696,18.2492995 C63.9145737,17.2764834 61.6786535,19.080755 61.6786535,21.2698898 L61.6786535,21.2698898 L61.6929302,26.6374939 L61.6929302,26.6374939 L61.6929558,26.6567632 C61.6929558,30.6578928 58.4493994,33.9014493 54.4482697,33.9014493 L54.4482697,33.9014493 Z" id="Combined-Shape" fill="#001D3F"></path>
                    <path d="M66.8082337,17.8832049 C67.3335721,18.1109519 67.9123205,18.2370709 68.5202321,18.2370709 C70.9195582,18.2370709 72.8645963,16.2724513 72.8645963,13.8489703 C72.8645963,11.4254892 70.9195582,9.46086957 68.5202321,9.46086957 C61.3425869,9.46086957 54.4482697,15.1560641 54.4482697,23.6521739 C56.3371237,18.9839817 60.3037172,17.3034325 63.514769,17.3034325 C64.5559546,17.3034325 65.6537762,17.49669 66.8082337,17.8832049 Z" id="Path" fill="#6AAFFF"></path>
                </g>
            </g>
            <g id="wifi_off_black_24dp" transform="translate(711.534178, 784.734425) rotate(-5.000000) translate(-711.534178, -784.734425) translate(498.534178, 571.734425)">
                <polygon id="Path" points="0.251360511 0.102093126 425.990491 0.102093126 425.990491 425.841224 0.251360511 425.841224"></polygon>
                <path d="M371.841122,192.931815 L407.12966,157.505785 C341.316537,91.4362389 250.624996,66.2837575 165.403178,81.1626902 L210.925391,126.862269 C269.151478,126.508009 327.554008,148.472148 371.841122,192.931815 Z M336.552585,228.357846 C317.496775,209.227789 294.912111,195.588768 270.915905,187.08652 L324.201597,240.579826 L336.552585,228.357846 Z M160.109897,299.209906 L213.042703,352.348951 L265.97551,299.209906 C236.862466,269.806301 189.399383,269.806301 160.109897,299.209906 Z M61.4784346,27.1379942 L36.6000157,52.1133454 L90.4150354,106.138041 C64.654403,119.068542 40.4817548,136.073037 18.9557469,157.505785 L54.2442844,192.931815 C75.946735,171.144807 101.001597,154.671703 127.820885,143.689633 L167.344047,183.366787 C138.760332,190.983384 111.941043,206.039447 89.532822,228.357846 L124.82136,263.783876 C148.641122,239.871305 179.695035,227.649325 211.101834,227.295065 L336.023257,352.703212 L360.901676,327.72786 L61.4784346,27.1379942 Z" id="Shape" fill="#021122" fill-rule="nonzero"></path>
            </g>
            <g id="Path-7">
                <mask id="mask-4" fill="white">
                    <use xlink:href="#path-3"></use>
                </mask>
                <g id="Mask"></g>
                <g mask="url(#mask-4)">
                    <g transform="translate(306.630205, 725.628546)">
                        <mask id="mask-6" fill="white">
                            <use xlink:href="#path-5"></use>
                        </mask>
                        <use id="Mask" stroke="none" fill="#85300F" fill-rule="evenodd" transform="translate(893.332175, 1111.273501) rotate(-366.000000) translate(-893.332175, -1111.273501) " xlink:href="#path-5"></use>
                        <path d="M463.456752,933.501889 L677.685654,1098.71231 C698.826268,1115.01567 716.488888,1135.38653 729.632224,1158.62395 L738.012445,1173.44018 L738.012445,1173.44018 L1049.89153,966.893194 L1072.84806,1010.71928 L1006.35239,1056.8757 C1003.37849,1080.36562 993.543708,1098.37145 976.848056,1110.89319 C960.152404,1123.41493 938.222535,1127.45779 911.058449,1123.02177 L766.320264,1223.4884 L1231.45675,2045.84972 L960.152404,2164.80624 L463.456752,933.501889 Z" id="Path-8" stroke="none" fill="#6C270C" fill-rule="evenodd" mask="url(#mask-6)"></path>
                        <path d="M665.891534,278.197541 L665.891534,633.03093 C665.891534,665.063445 639.92405,691.03093 607.891534,691.03093 C599.280072,691.03093 590.776667,689.113357 582.998661,685.417425 L371.630665,584.98015 L371.630665,584.98015 L190.065448,497.327976 L144.189622,461.811208 C134.58212,454.373142 132.823444,440.554978 140.26151,430.947476 C140.614386,430.491679 140.985039,430.049926 141.372611,429.623241 L209.834503,354.252351 C226.300869,336.124241 225.869282,308.327445 208.848056,290.719281 L208.848056,290.719281 L208.848056,290.719281 C412.812648,204.207152 515.76917,158.294109 517.717621,152.98015 C523.282839,178.023628 533.021969,196.806237 546.935013,209.327976 L665.891534,278.197541 Z" id="Path-7" stroke="none" fill="#6C270C" fill-rule="evenodd" mask="url(#mask-6)"></path>
                    </g>
                </g>
            </g>
            <path d="M530.851878,812.825736 C554.475254,789.220701 550.045871,746.436575 520.516651,725.782169 C511.501192,719.476247 498.369736,718.405596 488.034509,728.732798 C475.654488,741.103208 345.427343,872.394984 334.824486,883.143821 C324.420554,893.690993 318,908.171886 318,924.151216 C318,940.908005 325.060526,956.017001 336.371075,966.669883 C343.698753,973.571483 352.810273,978.602738 362.941393,981 C368.441169,975.110351 505.732686,837.925426 530.851878,812.825736 Z" id="Oval" fill="#85300F" transform="translate(432.000000, 851.000000) rotate(-360.000000) translate(-432.000000, -851.000000) "></path>
            <path d="M527.851878,939.978641 C551.475254,916.3343 547.045871,873.478931 517.516651,852.790132 C508.501192,846.47371 495.369736,845.401275 485.034509,855.745675 C472.654488,868.136684 342.427343,999.647082 331.824486,1010.41382 C321.420554,1020.97855 315,1035.48356 315,1051.4895 C315,1068.27419 322.060526,1083.40834 333.371075,1094.07897 C340.698753,1100.99206 390.541006,1133.56669 400.876233,1138 C403.698741,1134.97237 439.264219,1087.75577 468.793439,1043.42263 C451.075907,1034.55601 455.257671,1012.63728 462.887595,1005.00058 C490.940353,976.922924 518.346459,949.492497 527.851878,939.978641 Z" id="Oval-Copy-12" fill="#85300F" transform="translate(429.000000, 993.000000) rotate(-360.000000) translate(-429.000000, -993.000000) "></path>
            <path d="M867.034479,847.67538 L926.886537,847.67538 C937.053443,847.67538 945.295349,855.917286 945.295349,866.084192 L945.295349,866.084192 L945.295349,866.084192 C945.295349,891.647708 924.572025,912.371032 899.008509,912.371032 L867.034479,912.371032 C849.169268,912.371032 834.686653,897.888417 834.686653,880.023206 C834.686653,862.157995 849.169268,847.67538 867.034479,847.67538 Z" id="Rectangle" fill="#6C270C" transform="translate(889.991001, 880.023206) rotate(29.000000) translate(-889.991001, -880.023206) "></path>
            <path d="M466.142892,1028.85355 L512.412648,1028.85355 C520.283801,1028.85355 526.664631,1035.23438 526.664631,1043.10553 L526.664631,1043.10553 L526.664631,1043.10553 C526.664631,1062.89664 510.620768,1078.94051 490.829659,1078.94051 L466.142892,1078.94051 C452.311761,1078.94051 441.099414,1067.72816 441.099414,1053.89703 C441.099414,1040.0659 452.311761,1028.85355 466.142892,1028.85355 Z" id="Rectangle" fill="#6C270C" transform="translate(483.882023, 1053.897027) scale(-1, 1) rotate(53.000000) translate(-483.882023, -1053.897027) "></path>
            <path d="M465.503064,868.991242 L517.295669,868.991242 C526.150717,868.991242 533.329151,876.169676 533.329151,885.024724 L533.329151,885.024724 L533.329151,885.024724 C533.329151,907.289721 515.279804,925.339068 493.014807,925.339068 L465.503064,925.339068 C449.943042,925.339068 437.329151,912.725178 437.329151,897.165155 C437.329151,881.605133 449.943042,868.991242 465.503064,868.991242 Z" id="Rectangle-Copy" fill="#6C270C" transform="translate(485.329151, 897.165155) scale(-1, 1) rotate(47.000000) translate(-485.329151, -897.165155) "></path>
            <path d="M469.676977,741.686894 L521.469582,741.686894 C530.32463,741.686894 537.503064,748.865329 537.503064,757.720376 L537.503064,757.720376 L537.503064,757.720376 C537.503064,779.985374 519.453717,798.03472 497.18872,798.03472 L469.676977,798.03472 C454.116955,798.03472 441.503064,785.42083 441.503064,769.860807 C441.503064,754.300785 454.116955,741.686894 469.676977,741.686894 Z" id="Rectangle-Copy-2" fill="#6C270C" transform="translate(489.503064, 769.860807) scale(-1, 1) rotate(47.000000) translate(-489.503064, -769.860807) "></path>
            <path d="M1347.28793,1621.81876 L1403.67198,1702.27631 C1404.30718,1703.17997 1404.08777,1704.42715 1403.18321,1705.06106 C1403.18278,1705.06136 1403.18235,1705.06166 1403.18103,1705.06068 L1308.42062,1771.35783 C1305.24941,1811.07671 1271.98524,1842.32129 1231.41741,1842.32129 C1224.31985,1842.32129 1217.44585,1841.36491 1210.91745,1839.5741 L963.498624,2012.67259 C962.593167,2013.30415 961.346919,2013.0844 960.712074,2012.18124 L904.328015,1931.72369 C903.69282,1930.82003 903.912226,1929.57285 904.816788,1928.93894 C904.817217,1928.93864 904.817645,1928.93834 904.818973,1928.93932 L1154.97583,1753.92367 C1160.4102,1716.60844 1192.56413,1687.94908 1231.41741,1687.94908 C1236.76284,1687.94908 1241.98145,1688.49155 1247.02113,1689.52439 L1344.50138,1621.32741 C1345.40683,1620.69585 1346.65308,1620.9156 1347.28793,1621.81876 Z" id="Combined-Shape" fill="#001123"></path>
        </g>
    </g>
</svg>